<svg width="258" height="210" viewBox="0 0 258 210" fill="none" xmlns="http://www.w3.org/2000/svg">
<g filter="url(#filter0_i_4_127)">
<circle cx="128.5" cy="95.5" r="71" stroke="#CF8FFF" stroke-width="5"/>
</g>
<g filter="url(#filter1_i_4_127)">
<ellipse cx="77" cy="5.5" rx="5" ry="5.5" fill="white"/>
</g>
<g filter="url(#filter2_i_4_127)">
<ellipse cx="55" cy="159.5" rx="5" ry="5.5" fill="white"/>
</g>
<g filter="url(#filter3_i_4_127)">
<rect x="192" y="174.885" width="20.6925" height="7" rx="3.5" transform="rotate(-46 192 174.885)" fill="white"/>
<rect x="197.035" y="160" width="20.6925" height="7" rx="3.5" transform="rotate(46 197.035 160)" fill="white"/>
</g>
<g filter="url(#filter4_i_4_127)">
<circle cx="192" cy="20" r="19" fill="white"/>
</g>
<path fill-rule="evenodd" clip-rule="evenodd" d="M109.178 111.101C175.695 106.041 229.25 97.1146 228.797 91.1638C228.345 85.213 174.055 84.4908 107.539 89.5508C87.5949 91.068 68.8159 92.9327 52.3087 94.9606C73.7789 91.034 103.125 87.5892 135.573 85.5199C186.615 82.2647 230.477 83.3604 248.282 87.7178C248.348 87.7338 248.413 87.7498 248.477 87.7659C253.718 89.0694 256.646 90.6613 256.764 92.5129C256.882 94.3645 254.18 96.3155 249.147 98.2742C249.085 98.2983 249.023 98.3224 248.96 98.3466C231.852 104.931 188.485 111.589 137.443 114.844C94.4321 117.587 56.5195 117.241 35 114.457C55.5274 114.328 81.2772 113.223 109.178 111.101Z" fill="white"/>
<path fill-rule="evenodd" clip-rule="evenodd" d="M144.817 88.3112C78.3006 93.3712 24.7453 102.297 25.198 108.248C25.6507 114.199 79.9399 114.921 146.456 109.861C181.16 107.221 212.335 103.529 234.153 99.7558C234.019 99.8092 233.884 99.8627 233.747 99.9161C233.685 99.9403 233.622 99.9644 233.559 99.9885C216.452 106.572 173.084 113.231 122.042 116.486C71.0004 119.741 27.1385 118.646 9.33308 114.288C9.26777 114.272 9.20281 114.256 9.13821 114.24C3.89763 112.937 0.969693 111.345 0.851609 109.493C0.733522 107.642 3.43549 105.691 8.46805 103.732C8.49718 103.721 8.52639 103.709 8.55568 103.698C8.58877 103.685 8.62195 103.672 8.65523 103.66C25.7629 97.0757 69.1303 90.417 120.172 87.1618C147.735 85.404 173.204 84.915 193.606 85.5231C178.666 86.0661 162.157 86.9922 144.817 88.3112Z" fill="white"/>
<defs>
<filter id="filter0_i_4_127" x="55.0001" y="22" width="147" height="151" filterUnits="userSpaceOnUse" color-interpolation-filters="sRGB">
<feFlood flood-opacity="0" result="BackgroundImageFix"/>
<feBlend mode="normal" in="SourceGraphic" in2="BackgroundImageFix" result="shape"/>
<feColorMatrix in="SourceAlpha" type="matrix" values="0 0 0 0 0 0 0 0 0 0 0 0 0 0 0 0 0 0 127 0" result="hardAlpha"/>
<feOffset dy="4"/>
<feGaussianBlur stdDeviation="2"/>
<feComposite in2="hardAlpha" operator="arithmetic" k2="-1" k3="1"/>
<feColorMatrix type="matrix" values="0 0 0 0 0.4 0 0 0 0 0.366667 0 0 0 0 0.366667 0 0 0 0.25 0"/>
<feBlend mode="normal" in2="shape" result="effect1_innerShadow_4_127"/>
</filter>
<filter id="filter1_i_4_127" x="72" y="0" width="10" height="15" filterUnits="userSpaceOnUse" color-interpolation-filters="sRGB">
<feFlood flood-opacity="0" result="BackgroundImageFix"/>
<feBlend mode="normal" in="SourceGraphic" in2="BackgroundImageFix" result="shape"/>
<feColorMatrix in="SourceAlpha" type="matrix" values="0 0 0 0 0 0 0 0 0 0 0 0 0 0 0 0 0 0 127 0" result="hardAlpha"/>
<feOffset dy="4"/>
<feGaussianBlur stdDeviation="2"/>
<feComposite in2="hardAlpha" operator="arithmetic" k2="-1" k3="1"/>
<feColorMatrix type="matrix" values="0 0 0 0 1 0 0 0 0 1 0 0 0 0 1 0 0 0 0.25 0"/>
<feBlend mode="normal" in2="shape" result="effect1_innerShadow_4_127"/>
</filter>
<filter id="filter2_i_4_127" x="50" y="154" width="10" height="15" filterUnits="userSpaceOnUse" color-interpolation-filters="sRGB">
<feFlood flood-opacity="0" result="BackgroundImageFix"/>
<feBlend mode="normal" in="SourceGraphic" in2="BackgroundImageFix" result="shape"/>
<feColorMatrix in="SourceAlpha" type="matrix" values="0 0 0 0 0 0 0 0 0 0 0 0 0 0 0 0 0 0 127 0" result="hardAlpha"/>
<feOffset dy="4"/>
<feGaussianBlur stdDeviation="2"/>
<feComposite in2="hardAlpha" operator="arithmetic" k2="-1" k3="1"/>
<feColorMatrix type="matrix" values="0 0 0 0 1 0 0 0 0 1 0 0 0 0 1 0 0 0 0.25 0"/>
<feBlend mode="normal" in2="shape" result="effect1_innerShadow_4_127"/>
</filter>
<filter id="filter3_i_4_127" x="193.449" y="161.449" width="16.5116" height="20.8495" filterUnits="userSpaceOnUse" color-interpolation-filters="sRGB">
<feFlood flood-opacity="0" result="BackgroundImageFix"/>
<feBlend mode="normal" in="SourceGraphic" in2="BackgroundImageFix" result="shape"/>
<feColorMatrix in="SourceAlpha" type="matrix" values="0 0 0 0 0 0 0 0 0 0 0 0 0 0 0 0 0 0 127 0" result="hardAlpha"/>
<feOffset dy="4"/>
<feGaussianBlur stdDeviation="2"/>
<feComposite in2="hardAlpha" operator="arithmetic" k2="-1" k3="1"/>
<feColorMatrix type="matrix" values="0 0 0 0 1 0 0 0 0 1 0 0 0 0 1 0 0 0 0.25 0"/>
<feBlend mode="normal" in2="shape" result="effect1_innerShadow_4_127"/>
</filter>
<filter id="filter4_i_4_127" x="173" y="1.00002" width="38" height="42" filterUnits="userSpaceOnUse" color-interpolation-filters="sRGB">
<feFlood flood-opacity="0" result="BackgroundImageFix"/>
<feBlend mode="normal" in="SourceGraphic" in2="BackgroundImageFix" result="shape"/>
<feColorMatrix in="SourceAlpha" type="matrix" values="0 0 0 0 0 0 0 0 0 0 0 0 0 0 0 0 0 0 127 0" result="hardAlpha"/>
<feOffset dy="4"/>
<feGaussianBlur stdDeviation="2"/>
<feComposite in2="hardAlpha" operator="arithmetic" k2="-1" k3="1"/>
<feColorMatrix type="matrix" values="0 0 0 0 1 0 0 0 0 1 0 0 0 0 1 0 0 0 0.25 0"/>
<feBlend mode="normal" in2="shape" result="effect1_innerShadow_4_127"/>
</filter>
</defs>
</svg>
