<svg width="481" height="516" viewBox="0 0 481 516" fill="none" xmlns="http://www.w3.org/2000/svg">
<path fill-rule="evenodd" clip-rule="evenodd" d="M90.0827 241.308C92.0636 244.015 94.8604 247.814 95.9832 249.467C106.646 265.164 110.673 271.622 111.838 274.633C113.709 279.471 113.051 282.605 112.236 284.971C111.439 287.282 110.109 289.276 107.861 291.283C107.442 291.656 106.998 292.001 106.532 292.314L76.6387 312.429C71.5164 315.394 67.4406 318.625 63.5093 318.716C59.578 318.806 55.2737 316.484 53.0508 312.971C52.5174 312.173 46.5014 303.201 7.68663 246.214C0.860677 236.193 -1.11218 222.186 0.563901 208.974C2.20827 196.012 7.3277 184.078 12.9014 177.734C18.5066 171.355 25.1496 169.211 31.0593 170.072C35.289 170.689 40.0095 172.819 43.9179 177.921C53.7274 190.729 59.8796 200.664 66.771 209.688C67.2708 210.342 67.7221 210.932 68.13 211.462C106.674 179.227 147.226 159.449 180.05 158.237C207.664 157.218 230.917 167.807 246.379 192.844C268.234 228.231 258.847 260.32 238.428 288.934C222.143 311.755 198.121 331.942 184.384 349.434C175.976 360.14 140.956 391.993 140.956 438.734C140.956 450.436 142.892 459.025 147.606 465.048C153.328 472.359 162.36 475.442 173.311 477.115C176.258 468.132 180.195 459.473 181.631 455.686C181.763 455.338 181.911 454.995 182.074 454.661C182.074 454.661 281.549 250.713 298.345 199.633C300.152 194.136 296.749 189.026 293.91 183.584C288.663 173.529 282.903 163.16 282.234 152.494C280.802 129.647 287.704 90.4567 289.829 66.7077C291.477 48.2873 294.732 11.2279 294.732 11.2279C295.182 6.09569 298.8 1.78697 303.795 0.432698C308.789 -0.921579 314.103 0.965596 317.108 5.16087L353.159 55.4999H422.514L458.565 5.16087C461.685 0.805159 467.276 -1.04478 472.395 0.584845C477.514 2.2145 480.988 6.94997 480.988 12.2987V146.673L480.981 503.138C480.981 509.931 475.448 515.437 468.622 515.437H360.305C314.244 515.437 355.084 515.765 242.278 515.538C211.044 516.066 182.596 517.004 160.697 512.147C143.322 508.294 129.44 500.984 119.615 489.274C109.997 477.81 103.88 461.759 103.88 438.734C103.88 380.736 144.739 339.999 155.171 326.714C168.623 309.586 192.253 289.917 208.199 267.571C220.016 251.012 227.439 232.641 214.792 212.162C204.73 195.87 187.87 192.574 168.66 196.824C144.284 202.216 116.779 218.576 90.0828 241.308L90.0827 241.308Z" fill="url(#paint0_linear_816_735)"/>
<defs>
<linearGradient id="paint0_linear_816_735" x1="240.494" y1="-0.000732422" x2="240.494" y2="515.978" gradientUnits="userSpaceOnUse">
<stop stop-color="#9E82D9"/>
<stop offset="1" stop-color="#652DDD"/>
</linearGradient>
</defs>
</svg>
